/* XPM */
static char * C:\Users\zachm_000\sjwcoin_working_dir\new_share_pixmaps\bitcoin16_xpm[] = {
"16 16 166 2",
"  	c None",
". 	c #A1A1A1",
"+ 	c #AFAFAF",
"@ 	c #BDBDBD",
"# 	c #BCBCBC",
"$ 	c #ADADAD",
"% 	c #9F9F9F",
"& 	c #999999",
"* 	c #646464",
"= 	c #8C8C8C",
"- 	c #606060",
"; 	c #4E4E4E",
"> 	c #505050",
", 	c #656565",
"' 	c #8A8A8A",
") 	c #666666",
"! 	c #9A9A9A",
"~ 	c #B2B1B3",
"{ 	c #4A4D45",
"] 	c #1B1A1B",
"^ 	c #373737",
"/ 	c #474748",
"( 	c #373736",
"_ 	c #171617",
": 	c #595C53",
"< 	c #B7B7B8",
"[ 	c #949494",
"} 	c #B8BBB4",
"| 	c #66842A",
"1 	c #44502B",
"2 	c #322E29",
"3 	c #363636",
"4 	c #6A533A",
"5 	c #6B5439",
"6 	c #3D3833",
"7 	c #302A27",
"8 	c #475629",
"9 	c #769637",
"0 	c #B5B5B7",
"a 	c #A7A7A8",
"b 	c #8AA554",
"c 	c #648A19",
"d 	c #4D4E43",
"e 	c #905F2C",
"f 	c #2F2D2A",
"g 	c #7F582D",
"h 	c #885926",
"i 	c #674825",
"j 	c #98632B",
"k 	c #52543E",
"l 	c #669509",
"m 	c #96A677",
"n 	c #A4A4A6",
"o 	c #BCBBBD",
"p 	c #6A9615",
"q 	c #494F40",
"r 	c #5B4E3D",
"s 	c #5C4E3E",
"t 	c #424243",
"u 	c #403325",
"v 	c #4D3821",
"w 	c #4A4641",
"x 	c #554A40",
"y 	c #505C38",
"z 	c #779B2E",
"A 	c #AFAEB0",
"B 	c #B0B3AC",
"C 	c #659407",
"D 	c #454248",
"E 	c #614F3C",
"F 	c #4E4943",
"G 	c #5B4E40",
"H 	c #2F2F2F",
"I 	c #363738",
"J 	c #5B4E3F",
"K 	c #4D4843",
"L 	c #62503B",
"M 	c #494D42",
"N 	c #6A9416",
"O 	c #B8BAB6",
"P 	c #ABB1A1",
"Q 	c #648F0C",
"R 	c #454149",
"S 	c #8B5E2C",
"T 	c #926029",
"U 	c #664F35",
"V 	c #34302B",
"W 	c #3B3329",
"X 	c #6E5334",
"Y 	c #925F29",
"Z 	c #845B2F",
"` 	c #4D5040",
" .	c #648B13",
"..	c #B6B7B3",
"+.	c #BABABC",
"@.	c #608A0C",
"#.	c #4B533E",
"$.	c #404448",
"%.	c #41454A",
"&.	c #272A2D",
"*.	c #4F473F",
"=.	c #5C4A35",
"-.	c #242A31",
";.	c #41464A",
">.	c #414548",
",.	c #4C533E",
"'.	c #729B21",
").	c #B5B5B5",
"!.	c #B1B0B2",
"~.	c #7EA433",
"{.	c #566B2F",
"].	c #464448",
"^.	c #363739",
"/.	c #58412A",
"(.	c #C37117",
"_.	c #C07018",
":.	c #8D5517",
"<.	c #3B3B3B",
"[.	c #444249",
"}.	c #5C7924",
"|.	c #88A64C",
"1.	c #A9A8AA",
"2.	c #99999A",
"3.	c #9CAB7D",
"4.	c #69980C",
"5.	c #4B523E",
"6.	c #302F33",
"7.	c #9B6427",
"8.	c #A56622",
"9.	c #A66622",
"0.	c #B16C21",
"a.	c #41352D",
"b.	c #4E563F",
"c.	c #6CA103",
"d.	c #A9B296",
"e.	c #919092",
"f.	c #ADADAF",
"g.	c #839C50",
"h.	c #67940F",
"i.	c #586D2D",
"j.	c #3F4446",
"k.	c #3D4245",
"l.	c #3C4045",
"m.	c #414945",
"n.	c #586F2C",
"o.	c #66930D",
"p.	c #92A866",
"q.	c #A7A6A9",
"r.	c #ACAFA9",
"s.	c #93AC63",
"t.	c #729E1A",
"u.	c #4C6618",
"v.	c #28272B",
"w.	c #171619",
"x.	c #537317",
"y.	c #74A01D",
"z.	c #9DB374",
"A.	c #A7A8A6",
"B.	c #9E9D9F",
"C.	c #B0B2AD",
"D.	c #9B9B9B",
"E.	c #A09F9F",
"F.	c #B4B4B5",
"G.	c #AEAFAC",
"H.	c #99989A",
"I.	c #979797",
"                                ",
"          . + @ # $ %           ",
"      & * = - ; > , ' ) !       ",
"    & ~ { ] ^ / / ( _ : < [     ",
"    } | 1 2 3 4 5 6 7 8 9 0     ",
"  a b c d e f g h i j k l m n   ",
"  o p q r s t u v w s x y z A   ",
"  B C D E F G H I J K L M N O   ",
"  P Q R S T U V W X Y Z `  ...  ",
"  +.@.#.$.%.&.*.=.-.;.>.,.'.).  ",
"  !.~.{.].^./.(._.:.<.[.}.|.1.  ",
"  2.3.4.5.6.7.8.9.0.a.b.c.d.e.  ",
"    f.g.h.i.j.k.l.m.n.o.p.q.    ",
"      r.s.t.u.v.w.x.y.z.A.      ",
"        B.C.~ D.E.F.G.H.        ",
"              I.I.              "};
