/* XPM */
static char * C:\Users\zachm_000\sjwcoin_working_dir\new_share_pixmaps\bitcoin32_xpm[] = {
"32 32 542 2",
"  	c None",
". 	c #898989",
"+ 	c #9A9A9A",
"@ 	c #ADADAD",
"# 	c #B9B9B9",
"$ 	c #B8B8B8",
"% 	c #B7B7B7",
"& 	c #A9A9A9",
"* 	c #969696",
"= 	c #828282",
"- 	c #929292",
"; 	c #B4B4B4",
"> 	c #B3B3B3",
", 	c #B5B5B5",
"' 	c #BABABA",
") 	c #ABABAB",
"! 	c #858585",
"~ 	c #7B7B7B",
"{ 	c #949494",
"] 	c #787878",
"^ 	c #676767",
"/ 	c #5F5F5F",
"( 	c #616161",
"_ 	c #6C6C6C",
": 	c #808080",
"< 	c #9D9D9D",
"[ 	c #B2B2B2",
"} 	c #8A8A8A",
"| 	c #888888",
"1 	c #797979",
"2 	c #161516",
"3 	c #5B5B5B",
"4 	c #515151",
"5 	c #404040",
"6 	c #434343",
"7 	c #444444",
"8 	c #424242",
"9 	c #5E5E5E",
"0 	c #1E1E1E",
"a 	c #8D8D8D",
"b 	c #BBBBBB",
"c 	c #B3B3B4",
"d 	c #8B8B8C",
"e 	c #1C1C1B",
"f 	c #121112",
"g 	c #464646",
"h 	c #393939",
"i 	c #0F0F0F",
"j 	c #353634",
"k 	c #959595",
"l 	c #B9B9BA",
"m 	c #8E8E8E",
"n 	c #BBBBBC",
"o 	c #B1B1B1",
"p 	c #878B80",
"q 	c #4A5438",
"r 	c #3B3E34",
"s 	c #0F0E0F",
"t 	c #1F1F1F",
"u 	c #272727",
"v 	c #333333",
"w 	c #484848",
"x 	c #474646",
"y 	c #484746",
"z 	c #474747",
"A 	c #323232",
"B 	c #252525",
"C 	c #1C1C1C",
"D 	c #141315",
"E 	c #3A402D",
"F 	c #5C624E",
"G 	c #979A92",
"H 	c #B9BAB8",
"I 	c #7D7D7D",
"J 	c #B3B5B2",
"K 	c #8E967E",
"L 	c #59761E",
"M 	c #648B16",
"N 	c #343335",
"O 	c #222325",
"P 	c #1D1E1F",
"Q 	c #2D2D2D",
"R 	c #444546",
"S 	c #454647",
"T 	c #5F4F3D",
"U 	c #66513A",
"V 	c #414549",
"W 	c #404243",
"X 	c #292A2C",
"Y 	c #17191A",
"Z 	c #232328",
"` 	c #44512B",
" .	c #577320",
"..	c #6B8832",
"+.	c #9FA78D",
"@.	c #B9B9BB",
"#.	c #A5A5A5",
"$.	c #A4A4A4",
"%.	c #B8B9B6",
"&.	c #9FAE83",
"*.	c #607F22",
"=.	c #689215",
"-.	c #4C5934",
";.	c #342F2D",
">.	c #533F2A",
",.	c #473D33",
"'.	c #242526",
").	c #47413A",
"!.	c #67523C",
"~.	c #A36523",
"{.	c #AF6A1E",
"].	c #5A4E40",
"^.	c #564533",
"/.	c #473624",
"(.	c #56422D",
"_.	c #4B3B2A",
":.	c #373331",
"<.	c #52662C",
"[.	c #6A9C07",
"}.	c #728D3A",
"|.	c #A5A89D",
"1.	c #BDBDBD",
"2.	c #939393",
"3.	c #B0B3A9",
"4.	c #7FA92C",
"5.	c #638817",
"6.	c #668D18",
"7.	c #546930",
"8.	c #5F503F",
"9.	c #BB6E1B",
"0.	c #81572A",
"a.	c #292D31",
"b.	c #513618",
"c.	c #A86720",
"d.	c #A86822",
"e.	c #B96D1C",
"f.	c #A6641C",
"g.	c #A05E15",
"h.	c #A4631B",
"i.	c #BB6E1A",
"j.	c #AC6923",
"k.	c #665B37",
"l.	c #56702C",
"m.	c #6C9911",
"n.	c #629008",
"o.	c #8EA365",
"p.	c #B5B7B0",
"q.	c #ACACAD",
"r.	c #9F9F9F",
"s.	c #B7B7B6",
"t.	c #99A77C",
"u.	c #65920C",
"v.	c #6C9A10",
"w.	c #546632",
"x.	c #43404A",
"y.	c #524A42",
"z.	c #765635",
"A.	c #574C3F",
"B.	c #3A3C3D",
"C.	c #26282B",
"D.	c #262E37",
"E.	c #755737",
"F.	c #8E5E2A",
"G.	c #202B37",
"H.	c #1E242A",
"I.	c #333B43",
"J.	c #574C40",
"K.	c #735636",
"L.	c #554A41",
"M.	c #444547",
"N.	c #5B7528",
"O.	c #6EA208",
"P.	c #6F9329",
"Q.	c #A4AC93",
"R.	c #BCBCBC",
"S.	c #B5B6B2",
"T.	c #81A739",
"U.	c #628819",
"V.	c #5A7229",
"W.	c #4A4744",
"X.	c #5E4E3D",
"Y.	c #67523A",
"Z.	c #434547",
"`.	c #353535",
" +	c #222527",
".+	c #704F2B",
"++	c #87541E",
"@+	c #20252B",
"#+	c #363737",
"$+	c #4B4744",
"%+	c #5C4E3E",
"&+	c #6B5339",
"*+	c #594C3F",
"=+	c #464447",
"-+	c #484A43",
";+	c #62831F",
">+	c #618D09",
",+	c #96A675",
"'+	c #838383",
")+	c #AFB4A6",
"!+	c #668923",
"~+	c #6C9B0F",
"{+	c #505D37",
"]+	c #444448",
"^+	c #4E4943",
"/+	c #6C5437",
"(+	c #404142",
"_+	c #2C2D2F",
":+	c #4E351A",
"<+	c #664118",
"[+	c #272B2F",
"}+	c #414345",
"|+	c #5D4E3E",
"1+	c #4A4745",
"2+	c #5F4E3C",
"3+	c #524A41",
"4+	c #42404A",
"5+	c #5B7428",
"6+	c #6B9F06",
"7+	c #819855",
"8+	c #AFB0AC",
"9+	c #AEAEAF",
"0+	c #B7B8B7",
"a+	c #A3AE8E",
"b+	c #5A791C",
"c+	c #699315",
"d+	c #4A4F40",
"e+	c #5B4D3E",
"f+	c #404449",
"g+	c #4F4943",
"h+	c #424448",
"i+	c #3A3A3A",
"j+	c #2C2721",
"k+	c #342D25",
"l+	c #3E3F40",
"m+	c #474746",
"n+	c #5C4D3E",
"o+	c #564B40",
"p+	c #3D4349",
"q+	c #434249",
"r+	c #526135",
"s+	c #648A17",
"t+	c #709130",
"u+	c #A9AF9E",
"v+	c #BBBABC",
"w+	c #9AA08E",
"x+	c #6CA006",
"y+	c #6A9613",
"z+	c #454448",
"A+	c #4E4843",
"B+	c #785733",
"C+	c #5A4D3F",
"D+	c #5D4E3D",
"E+	c #64503B",
"F+	c #6F5437",
"G+	c #4D4944",
"H+	c #3A3A3B",
"I+	c #242627",
"J+	c #2E3032",
"K+	c #3D3E40",
"L+	c #5B4E40",
"M+	c #6C5338",
"N+	c #604F3C",
"O+	c #695239",
"P+	c #67513A",
"Q+	c #4C4645",
"R+	c #4F5B39",
"S+	c #658D15",
"T+	c #79A325",
"U+	c #ABB39B",
"V+	c #848484",
"W+	c #929C80",
"X+	c #658E12",
"Y+	c #64891B",
"Z+	c #464845",
"`+	c #524942",
" @	c #92602A",
".@	c #946129",
"+@	c #9C6326",
"@@	c #976227",
"#@	c #865D2F",
"$@	c #584A39",
"%@	c #292B2E",
"&@	c #35302A",
"*@	c #40382E",
"=@	c #292C30",
"-@	c #624F3A",
";@	c #8E5F2C",
">@	c #966128",
",@	c #9B6325",
"'@	c #926029",
")@	c #845B2F",
"!@	c #564941",
"~@	c #4D5B39",
"{@	c #668D16",
"]@	c #678726",
"^@	c #A5AB9A",
"/@	c #878787",
"(@	c #B7B8B6",
"_@	c #9BAB7C",
":@	c #608517",
"<@	c #454547",
"[@	c #4D4844",
"}@	c #6B5338",
"|@	c #7B5832",
"1@	c #685138",
"2@	c #3E3832",
"3@	c #222528",
"4@	c #624B31",
"5@	c #724E25",
"6@	c #20252A",
"7@	c #423A31",
"8@	c #6F5539",
"9@	c #795733",
"0@	c #4B4546",
"a@	c #526334",
"b@	c #658B17",
"c@	c #6C9220",
"d@	c #A7AF97",
"e@	c #AAAFA1",
"f@	c #68980C",
"g@	c #4F5B38",
"h@	c #444447",
"i@	c #424548",
"j@	c #404448",
"k@	c #393C3F",
"l@	c #262627",
"m@	c #313336",
"n@	c #795732",
"o@	c #935F26",
"p@	c #292F34",
"q@	c #272829",
"r@	c #3A3D41",
"s@	c #42464A",
"t@	c #424547",
"u@	c #444249",
"v@	c #536134",
"w@	c #6C9D08",
"x@	c #82A73A",
"y@	c #AEB3A4",
"z@	c #B9B8BA",
"A@	c #B0B3AB",
"B@	c #5E7E20",
"C@	c #63861C",
"D@	c #5A7329",
"E@	c #2D2E2E",
"F@	c #26292C",
"G@	c #363E48",
"H@	c #6E5438",
"I@	c #885D2D",
"J@	c #2F3A46",
"K@	c #22282E",
"L@	c #2B2D30",
"M@	c #454545",
"N@	c #5E7B24",
"O@	c #648D11",
"P@	c #7E9353",
"Q@	c #AFB2AA",
"R@	c #AAAAAB",
"S@	c #B1B2B2",
"T@	c #B3B6AE",
"U@	c #7E9D40",
"V@	c #6C9E09",
"W@	c #608021",
"X@	c #373737",
"Y@	c #262525",
"Z@	c #5F4831",
"`@	c #A86821",
" #	c #B36C1D",
".#	c #936029",
"+#	c #825320",
"@#	c #403120",
"##	c #313539",
"$#	c #454447",
"%#	c #4A4F41",
"&#	c #689216",
"*#	c #689709",
"=#	c #92A768",
"-#	c #B7B9B2",
";#	c #99999A",
">#	c #9B9A9B",
",#	c #B8B8B7",
"'#	c #A7B48B",
")#	c #6A9614",
"!#	c #648B1A",
"~#	c #515F36",
"{#	c #3E3E3E",
"]#	c #232527",
"^#	c #45392D",
"/#	c #A9671F",
"(#	c #D8780F",
"_#	c #D17511",
":#	c #CF7511",
"<#	c #D57710",
"[#	c #CE7513",
"}#	c #955814",
"|#	c #473725",
"1#	c #3C3E40",
"2#	c #576D2D",
"3#	c #679210",
"4#	c #7EA333",
"5#	c #ACB59B",
"6#	c #7A7A7A",
"7#	c #B0B3AA",
"8#	c #6B8F24",
"9#	c #648D15",
"0#	c #618220",
"a#	c #4B5140",
"b#	c #434246",
"c#	c #333435",
"d#	c #302B26",
"e#	c #895A27",
"f#	c #D37611",
"g#	c #CD7413",
"h#	c #CE7413",
"i#	c #D67710",
"j#	c #6E4416",
"k#	c #2C3136",
"l#	c #46444A",
"m#	c #4B523F",
"n#	c #689017",
"o#	c #638F0A",
"p#	c #869D58",
"q#	c #B3B7AC",
"r#	c #A8A7A9",
"s#	c #96AE67",
"t#	c #73A410",
"u#	c #6C9C0D",
"v#	c #618221",
"w#	c #343339",
"x#	c #423E3C",
"y#	c #685239",
"z#	c #7A5833",
"A#	c #7C5933",
"B#	c #504031",
"C#	c #34343D",
"D#	c #4B523E",
"E#	c #5F7D24",
"F#	c #71A901",
"G#	c #7AA91F",
"H#	c #A0B081",
"I#	c #B8B9B5",
"J#	c #8D8D8E",
"K#	c #B5B9AE",
"L#	c #93AC5F",
"M#	c #60811E",
"N#	c #6EA00B",
"O#	c #58702A",
"P#	c #4A5337",
"Q#	c #474A44",
"R#	c #40404B",
"S#	c #42454A",
"T#	c #3E404B",
"U#	c #424445",
"V#	c #52632F",
"W#	c #61831E",
"X#	c #638916",
"Y#	c #719429",
"Z#	c #9CB075",
"`#	c #BABDB6",
" $	c #A09FA1",
".$	c #7B9F31",
"+$	c #72A708",
"@$	c #648A19",
"#$	c #5F7E23",
"$$	c #556730",
"%$	c #3B3842",
"&$	c #3B3B3B",
"*$	c #3C3C3D",
"=$	c #434342",
"-$	c #586F2D",
";$	c #63871C",
">$	c #668D19",
",$	c #6B9911",
"'$	c #6F9F0F",
")$	c #88A74C",
"!$	c #B1B7A8",
"~$	c #A9A8AA",
"{$	c #B2B5AF",
"]$	c #ADBA94",
"^$	c #93AE5D",
"/$	c #68960D",
"($	c #6DA401",
"_$	c #668E16",
":$	c #6B9C0B",
"<$	c #424F29",
"[$	c #312F34",
"}$	c #3D3D3D",
"|$	c #272728",
"1$	c #252524",
"2$	c #4A5F1F",
"3$	c #6D9C10",
"4$	c #6A9A0C",
"5$	c #679904",
"6$	c #74A11E",
"7$	c #99B16B",
"8$	c #B3BCA2",
"9$	c #A8AAA6",
"0$	c #8B8A8C",
"a$	c #8D8C8E",
"b$	c #AEAEB0",
"c$	c #B4B9AB",
"d$	c #9CAF75",
"e$	c #8FAB58",
"f$	c #70991E",
"g$	c #637F2B",
"h$	c #2D3026",
"i$	c #1D1D1E",
"j$	c #2C2C2C",
"k$	c #232323",
"l$	c #161616",
"m$	c #353E25",
"n$	c #6A8C2A",
"o$	c #7DA52E",
"p$	c #8EA85B",
"q$	c #A4B486",
"r$	c #B7BAB1",
"s$	c #A6A4A8",
"t$	c #888889",
"u$	c #9D9C9D",
"v$	c #B4B8AC",
"w$	c #AAB398",
"x$	c #A3A69D",
"y$	c #8D8C8F",
"z$	c #767676",
"A$	c #7E7D7E",
"B$	c #939293",
"C$	c #A7AC9D",
"D$	c #ADB69D",
"E$	c #B6B9AF",
"F$	c #B1B2B0",
"G$	c #989898",
"H$	c #878687",
"I$	c #9E9E9E",
"J$	c #B6B5B7",
"K$	c #BCBBBC",
"L$	c #BDBCBE",
"M$	c #AFAFB1",
"N$	c #868686",
"O$	c #8C8C8C",
"P$	c #9C9C9C",
"Q$	c #999999",
"                                                                ",
"                                                                ",
"                      . + @ # $ $ % & * =                       ",
"                  - ; # % ; > > > > , $ ' ) .                   ",
"              ! + ~ , @ { ] ^ / ( _ : < [ & = } |               ",
"            - % 1 2 3 4 5 6 7 7 7 7 8 8 9 4 0 : % a             ",
"          { b c d e f 8 6 6 g g g g 6 6 h i j k l ; m           ",
"        a n o p q r s t u v w x y z A B C D E F G H o }         ",
"      I % J K L M N O P Q R S T U V W X Y Z `  ...+.@.#.        ",
"      $.%.&.*.=.-.;.>.,.'.).!.~.{.].^./.(._.:.<.[.}.|.1.2.      ",
"    = ' 3.4.5.6.7.8.9.0.a.b.c.d.e.f.g.h.i.j.k.l.m.n.o.p.q.      ",
"    r.s.t.u.v.w.x.y.z.A.B.C.D.E.F.G.H.I.J.K.L.M.N.O.P.Q.R.a     ",
"    % S.T.U.V.x.W.X.X.Y.Z.`. +.+++@+#+$+%+&+*+=+-+;+>+,+%.<     ",
"  '+$ )+!+~+{+]+^+/+x T y.(+_+:+<+[+}+|+|+1+2+3+4+5+6+7+8+9+    ",
"  m 0+a+b+c+d+x J.e+f+g+Y.h+i+j+k+l+m+n+o+p+X.A.q+r+s+t+u+v+    ",
"  2.% w+x+y+z+A+B+C+D+E+F+G+H+I+J+K+L+M+N+e+O+P+Q+R+S+T+U+v+V+  ",
"  { s.W+X+Y+Z+`+ @.@+@@@#@$@%@&@*@=@-@;@>@,@'@)@!@~@{@]@^@v+/@  ",
"  2.(@_@:@~+<@[@}@B+|@B+1@2@3@4@5@6@7@8@9@|@B+U 0@a@b@c@d@v+'+  ",
"  a $ e@f@c+g@h@i@j@j@V k@l@m@n@o@p@q@r@s@j@j@t@u@v@w@x@y@z@    ",
"  I # A@B@C@D@u@g g z 6 E@F@G@H@I@J@K@L@M@g g g x.N@O@P@Q@R@    ",
"    S@T@U@V@W@g g g g X@Y@Z@@@`@ #.#+#@###w g $#%#&#*#=#-#;#    ",
"    >#,#'#)#!#~#u@m+{#]#^#/#(#_#:#<#[#}#|#1#z x.2#3#4#5#v+.     ",
"    6#$ 7#8#9#0#a#b#c#d#e#f#g#g#g#g#h#i#j#k#l#m#n#o#p#q#r#      ",
"      < -#s#t#u#v#6 w#x#y#z#B+B+B+B+B+A#B#C#D#E#F#G#H#I#J#      ",
"        @ K#L#M#N#O#P#Q#R#V V V S#V f+T#U#V#W#X#Y#Z#`# $        ",
"        . ; U+.$+$@$)##$$$%$&$8 &$*$=$-$;$>$,$'$)$!$~$          ",
"          m {$]$^$/$($_$:$<$[$}$|$1$2$3$4$5$6$7$8$9$0$          ",
"            a$b$c$d$e$f$g$h$i$j$k$l$m$n$o$p$q$r$s$t$            ",
"              ! u$I#v$w$x$y$] z$1 A$B$C$D$E$F$G$                ",
"                  H$I$J$K$' , > ; % ' L$M$;#N$                  ",
"                        O$* + P$P$Q${ /@                        ",
"                                                                "};
